REM DIRINDEX 1\2\6,1\2\7,1\2\8,1\2\9,1\3\10,1\3\11,1\4\12,1\4\13,1\4\14,1\5\15,1\5\16,1\5\17
REM DIRNAME cjc029,folder01,folder02,folder03,folder04,folder05,folder06,folder07,folder08,folder09,folder10,folder11,folder12,folder13,folder14,folder15,folder16
TITLE ""
FILE "1400_2_sec10_0950_0967.mp3" MP3
  TRACK 01 AUDIO
    TITLE "0:"
    INDEX 01 00:00:00
  TRACK 02 AUDIO
    TITLE "13:cjc029_3505"
    INDEX 01 00:00:17
  TRACK 03 AUDIO
    TITLE "0:"
    INDEX 01 00:01:38
  TRACK 04 AUDIO
    TITLE "14:cjc029_3506"
    INDEX 01 00:01:42
  TRACK 05 AUDIO
    TITLE "0:"
    INDEX 01 00:04:11
  TRACK 06 AUDIO
    TITLE "13:cjc029_3507"
    INDEX 01 00:04:70
  TRACK 07 AUDIO
    TITLE "0:"
    INDEX 01 00:05:71
  TRACK 08 AUDIO
    TITLE "14:cjc029_3508"
    INDEX 01 00:06:02
  TRACK 09 AUDIO
    TITLE "0:"
    INDEX 01 00:09:38
  TRACK 10 AUDIO
    TITLE "13:cjc029_3509"
    INDEX 01 00:10:19
  TRACK 11 AUDIO
    TITLE "0:"
    INDEX 01 00:11:37
  TRACK 12 AUDIO
    TITLE "14:cjc029_3510"
    INDEX 01 00:11:42
  TRACK 13 AUDIO
    TITLE "0:"
    INDEX 01 00:12:58
  TRACK 14 AUDIO
    TITLE "13:cjc029_3511"
    INDEX 01 00:13:45
  TRACK 15 AUDIO
    TITLE "0:"
    INDEX 01 00:14:74
  TRACK 16 AUDIO
    TITLE "14:cjc029_3512"
    INDEX 01 00:15:05
  TRACK 17 AUDIO
    TITLE "0:"
    INDEX 01 00:18:01
  TRACK 18 AUDIO
    TITLE "13:cjc029_3513"
    INDEX 01 00:18:68
  TRACK 19 AUDIO
    TITLE "0:"
    INDEX 01 00:20:14
  TRACK 20 AUDIO
    TITLE "14:cjc029_3514"
    INDEX 01 00:20:18
  TRACK 21 AUDIO
    TITLE "0:"
    INDEX 01 00:21:09
  TRACK 22 AUDIO
    TITLE "13:cjc029_3515"
    INDEX 01 00:21:66
  TRACK 23 AUDIO
    TITLE "0:"
    INDEX 01 00:22:68
  TRACK 24 AUDIO
    TITLE "14:cjc029_3516"
    INDEX 01 00:22:74
  TRACK 25 AUDIO
    TITLE "0:"
    INDEX 01 00:24:65
  TRACK 26 AUDIO
    TITLE "13:cjc029_3517"
    INDEX 01 00:25:46
  TRACK 27 AUDIO
    TITLE "0:"
    INDEX 01 00:26:58
  TRACK 28 AUDIO
    TITLE "14:cjc029_3518"
    INDEX 01 00:26:67
  TRACK 29 AUDIO
    TITLE "0:"
    INDEX 01 00:27:55
  TRACK 30 AUDIO
    TITLE "13:cjc029_3519"
    INDEX 01 00:28:37
  TRACK 31 AUDIO
    TITLE "0:"
    INDEX 01 00:29:34
  TRACK 32 AUDIO
    TITLE "14:cjc029_3520"
    INDEX 01 00:29:38
  TRACK 33 AUDIO
    TITLE "0:"
    INDEX 01 00:31:41
  TRACK 34 AUDIO
    TITLE "13:cjc029_3521"
    INDEX 01 00:32:25
  TRACK 35 AUDIO
    TITLE "0:"
    INDEX 01 00:33:28
  TRACK 36 AUDIO
    TITLE "14:cjc029_3522"
    INDEX 01 00:33:32
  TRACK 37 AUDIO
    TITLE "0:"
    INDEX 01 00:34:38
  TRACK 38 AUDIO
    TITLE "13:cjc029_3523"
    INDEX 01 00:35:19
  TRACK 39 AUDIO
    TITLE "0:"
    INDEX 01 00:36:42
  TRACK 40 AUDIO
    TITLE "14:cjc029_3524"
    INDEX 01 00:36:44
  TRACK 41 AUDIO
    TITLE "0:"
    INDEX 01 00:37:50
  TRACK 42 AUDIO
    TITLE "13:cjc029_3525"
    INDEX 01 00:38:31
  TRACK 43 AUDIO
    TITLE "0:"
    INDEX 01 00:39:52
  TRACK 44 AUDIO
    TITLE "14:cjc029_3526"
    INDEX 01 00:39:56
  TRACK 45 AUDIO
    TITLE "0:"
    INDEX 01 00:42:18
  TRACK 46 AUDIO
    TITLE "13:cjc029_3527"
    INDEX 01 00:42:72
  TRACK 47 AUDIO
    TITLE "0:"
    INDEX 01 00:44:16
  TRACK 48 AUDIO
    TITLE "14:cjc029_3528"
    INDEX 01 00:44:22
  TRACK 49 AUDIO
    TITLE "0:"
    INDEX 01 00:46:74
  TRACK 50 AUDIO
    TITLE "13:cjc029_3529"
    INDEX 01 00:47:60
  TRACK 51 AUDIO
    TITLE "0:"
    INDEX 01 00:48:49
  TRACK 52 AUDIO
    TITLE "14:cjc029_3530"
    INDEX 01 00:48:63
  TRACK 53 AUDIO
    TITLE "0:"
    INDEX 01 00:53:02
  TRACK 54 AUDIO
    TITLE "13:cjc029_3531"
    INDEX 01 00:53:57
  TRACK 55 AUDIO
    TITLE "0:"
    INDEX 01 00:54:62
  TRACK 56 AUDIO
    TITLE "14:cjc029_3532"
    INDEX 01 00:54:64
  TRACK 57 AUDIO
    TITLE "0:"
    INDEX 01 00:58:05
  TRACK 58 AUDIO
    TITLE "13:cjc029_3533"
    INDEX 01 00:58:64
  TRACK 59 AUDIO
    TITLE "0:"
    INDEX 01 01:00:15
  TRACK 60 AUDIO
    TITLE "14:cjc029_3534"
    INDEX 01 01:00:17
  TRACK 61 AUDIO
    TITLE "0:"
    INDEX 01 01:02:63
  TRACK 62 AUDIO
    TITLE "13:cjc029_3535"
    INDEX 01 01:03:43
  TRACK 63 AUDIO
    TITLE "0:"
    INDEX 01 01:04:74
  TRACK 64 AUDIO
    TITLE "14:cjc029_3536"
    INDEX 01 01:05:03
  TRACK 65 AUDIO
    TITLE "0:"
    INDEX 01 01:07:64
  TRACK 66 AUDIO
    TITLE "13:cjc029_3537"
    INDEX 01 01:08:44
  TRACK 67 AUDIO
    TITLE "0:"
    INDEX 01 01:09:50
  TRACK 68 AUDIO
    TITLE "14:cjc029_3538"
    INDEX 01 01:09:52
  TRACK 69 AUDIO
    TITLE "0:"
    INDEX 01 01:11:74
  TRACK 70 AUDIO
    TITLE "13:cjc029_3539"
    INDEX 01 01:12:62
  TRACK 71 AUDIO
    TITLE "0:"
    INDEX 01 01:13:65
  TRACK 72 AUDIO
    TITLE "14:cjc029_3540"
    INDEX 01 01:13:69
  TRACK 73 AUDIO
    TITLE "0:"
    INDEX 01 01:15:05
